<svg width="30" height="40" viewBox="0 0 30 40" fill="none" xmlns="http://www.w3.org/2000/svg">
  <path d="M29.1828 24.4156C29.1839 24.6095 29.1471 24.8016 29.0745 24.9811C29.0019 25.1606 28.8949 25.3239 28.7597 25.4615L15.6302 38.7205C15.4945 38.8586 15.3332 38.9682 15.1554 39.0429C14.9776 39.1177 14.787 39.1562 14.5944 39.1562C14.4018 39.1562 14.2111 39.1177 14.0333 39.0429C13.8556 38.9682 13.6942 38.8586 13.5586 38.7205L0.429033 25.4615C0.293013 25.3242 0.185116 25.1611 0.111502 24.9816C0.0378889 24.8022 2.86641e-09 24.6098 0 24.4156C-2.86641e-09 24.2213 0.0378889 24.029 0.111502 23.8495C0.185116 23.67 0.293013 23.5069 0.429033 23.3696C0.565053 23.2322 0.726533 23.1233 0.904252 23.0489C1.08197 22.9746 1.27245 22.9363 1.46481 22.9363C1.65717 22.9363 1.84765 22.9746 2.02537 23.0489C2.20309 23.1233 2.36457 23.2322 2.50059 23.3696L14.5944 35.5973L26.6882 23.3696C26.8238 23.2315 26.9851 23.1219 27.1629 23.0471C27.3407 22.9723 27.5314 22.9338 27.724 22.9338C27.9165 22.9338 28.1072 22.9723 28.285 23.0471C28.4628 23.1219 28.6241 23.2315 28.7597 23.3696C28.8949 23.5072 29.0019 23.6705 29.0745 23.85C29.1471 24.0295 29.1839 24.2217 29.1828 24.4156Z"
        fill="#585858"/>
  <path d="M16.0534 2.31759L16.0534 37.6747C16.0534 38.0655 15.8997 38.4402 15.6261 38.7165C15.3526 38.9927 14.9815 39.1479 14.5946 39.1479C14.2077 39.1479 13.8366 38.9927 13.563 38.7165C13.2894 38.4402 13.1357 38.0655 13.1357 37.6747L13.1357 2.31759C13.1357 1.92687 13.2894 1.55215 13.563 1.27587C13.8366 0.999592 14.2077 0.844379 14.5946 0.844379C14.9815 0.844379 15.3526 0.999592 15.6261 1.27587C15.8997 1.55215 16.0534 1.92687 16.0534 2.31759Z" fill="#585858"/>
</svg>
