<?xml version="1.0" standalone="no"?>
<!DOCTYPE svg PUBLIC "-//W3C//DTD SVG 20010904//EN"
 "http://www.w3.org/TR/2001/REC-SVG-20010904/DTD/svg10.dtd">
<svg version="1.0" xmlns="http://www.w3.org/2000/svg"
 width="220.000000pt" height="300.000000pt" viewBox="0 0 1022.000000 209.000000"
 preserveAspectRatio="xMidYMid meet">

<g transform="translate(0.000000,209.000000) scale(0.100000,-0.100000)"
fill="#5875FB" stroke="none">
<path d="M864 2075 c-462 -69 -816 -442 -852 -895 -16 -193 14 -354 97 -525
130 -265 351 -445 649 -527 107 -30 373 -32 477 -4 314 83 550 277 680 559 51
110 75 210 85 354 12 189 57 298 165 408 71 71 135 106 255 136 76 20 93 21
164 11 77 -11 191 -56 227 -88 14 -13 18 -10 34 33 41 109 116 242 188 333 20
24 33 48 30 53 -11 18 -188 94 -278 121 -191 55 -337 57 -534 5 -139 -37 -241
-87 -351 -173 -100 -78 -167 -155 -233 -264 -50 -86 -117 -247 -117 -285 0
-12 -4 -27 -10 -33 -5 -5 -14 -66 -20 -134 -13 -161 -26 -222 -61 -292 -121
-241 -434 -345 -678 -225 -79 38 -184 139 -223 213 -155 290 13 652 335 724
117 27 285 -3 380 -66 22 -14 43 -22 47 -17 4 4 17 34 29 67 32 88 109 220
175 300 47 56 48 54 -65 111 -182 93 -401 129 -595 100z"/>
<path d="M4830 1090 l0 -320 85 0 85 0 0 320 0 320 -85 0 -85 0 0 -320z"/>
<path d="M5120 1350 l0 -60 85 0 85 0 0 60 0 60 -85 0 -85 0 0 -60z"/>
<path d="M7040 1090 l0 -320 85 0 85 0 0 320 0 320 -85 0 -85 0 0 -320z"/>
<path d="M9250 1290 c0 -66 -3 -120 -7 -120 -3 0 -14 6 -22 13 -53 46 -191 63
-281 36 -69 -21 -135 -91 -151 -162 -26 -119 35 -237 141 -272 102 -34 254
-11 306 46 26 28 34 23 34 -21 l0 -40 75 0 75 0 0 320 0 320 -85 0 -85 0 0
-120z m-65 -194 c42 -18 69 -58 68 -103 -2 -64 -62 -103 -160 -103 -155 0
-206 138 -78 208 28 16 129 15 170 -2z"/>
<path d="M3486 1379 c-188 -44 -240 -229 -86 -305 25 -12 106 -36 180 -53 185
-43 222 -57 218 -85 -4 -29 -56 -45 -153 -45 -91 -1 -153 21 -180 63 -16 24
-22 26 -96 26 -88 0 -93 -5 -65 -71 41 -97 148 -141 340 -140 232 1 346 71
334 203 -6 53 -31 88 -82 115 -15 8 -105 32 -198 54 -189 44 -208 51 -208 79
0 65 204 64 270 -1 27 -27 33 -29 109 -29 45 0 81 2 81 5 0 17 -34 83 -53 103
-30 33 -101 67 -165 81 -62 13 -190 13 -246 0z"/>
<path d="M6464 1379 c-169 -28 -274 -143 -274 -300 0 -103 17 -147 80 -211 79
-79 156 -103 325 -102 100 1 130 5 178 23 75 29 124 73 153 136 l24 50 -28 6
c-15 4 -54 7 -87 8 -51 1 -62 -2 -73 -20 -23 -36 -95 -61 -180 -61 -88 1 -125
12 -165 50 -77 73 -76 179 2 245 79 66 238 64 316 -4 34 -30 35 -30 115 -23
76 6 80 8 74 28 -37 133 -244 211 -460 175z"/>
<path d="M5520 1297 c0 -24 -5 -48 -12 -55 -7 -7 -38 -12 -70 -12 l-58 0 0
-60 0 -59 63 -3 62 -3 6 -115 c8 -186 35 -214 204 -215 l100 0 3 67 3 67 -56
-1 c-79 -2 -89 11 -90 114 l0 83 78 3 77 3 0 59 0 60 -75 0 -75 0 0 55 0 55
-80 0 -80 0 0 -43z"/>
<path d="M4318 1230 c-113 -14 -186 -59 -224 -136 -31 -63 -30 -132 1 -197 37
-78 155 -129 300 -129 202 0 325 86 325 227 0 74 -29 137 -81 174 -67 49 -207
75 -321 61z m149 -131 c49 -18 83 -59 83 -99 0 -65 -67 -110 -163 -110 -67 0
-117 25 -141 71 -19 35 -19 36 0 75 12 24 32 46 54 56 39 20 124 24 167 7z"/>
<path d="M7568 1230 c-113 -14 -186 -59 -224 -136 -31 -63 -30 -132 1 -197 37
-78 155 -129 300 -129 201 0 326 87 326 226 0 74 -29 137 -80 174 -69 50 -208
77 -323 62z m155 -131 c49 -25 77 -62 77 -99 0 -66 -66 -110 -162 -110 -67 0
-117 25 -142 72 -19 34 -19 35 0 74 12 24 32 46 54 56 40 20 139 24 173 7z"/>
<path d="M9730 1234 c-88 -13 -132 -28 -159 -53 -62 -58 -46 -152 32 -190 23
-11 100 -30 170 -42 128 -23 166 -37 154 -56 -19 -30 -211 -21 -247 12 -12 11
-39 15 -94 15 -75 0 -77 -1 -71 -22 21 -72 93 -116 212 -127 159 -16 312 17
350 75 21 32 19 91 -4 123 -30 40 -80 58 -220 82 -139 23 -173 39 -138 65 25
20 127 14 172 -10 37 -19 183 -23 183 -5 0 28 -39 72 -85 94 -66 32 -180 50
-255 39z"/>
<path d="M5120 1000 l0 -230 85 0 85 0 0 230 0 230 -85 0 -85 0 0 -230z"/>
<path d="M8071 1072 c4 -145 6 -161 29 -207 34 -65 91 -96 177 -96 87 -1 141
19 191 68 l42 42 0 -54 0 -55 80 0 80 0 0 230 0 230 -85 0 -85 0 0 -111 c0
-158 -29 -207 -131 -217 -99 -9 -129 39 -129 213 l0 115 -86 0 -86 0 3 -158z"/>
<path d="M2180 652 c-35 -94 -119 -246 -171 -311 -27 -33 -49 -64 -49 -70 0
-13 84 -63 166 -99 187 -81 425 -99 629 -48 61 16 128 37 150 48 64 32 165 92
165 98 0 3 -27 41 -60 85 -61 81 -132 210 -165 298 -13 33 -21 44 -29 38 -7
-6 -39 -24 -73 -40 -70 -35 -187 -56 -273 -48 -71 6 -191 48 -235 81 l-34 26
-21 -58z"/>
</g>
</svg>
